<?xml version="1.0" encoding="UTF-8"?>
<svg version="1.1" xmlns="http://www.w3.org/2000/svg" width="1024" height="1024">
<path d="M0 0 C0 0.66 0 1.32 0 2 C4.29888613 0.48134786 4.29888613 0.48134786 8 -2 C13.08180401 -2.52809207 17.57045481 -2.65979009 22.25 -0.5 C54.25975232 28.59977484 64.91077455 89.72677011 70 131 C70.17402344 132.27875 70.34804688 133.5575 70.52734375 134.875 C75.43427127 180.74650219 53.83514347 228.70490375 26.375 264.125 C25.34209839 265.4709021 25.34209839 265.4709021 24.28833008 266.84399414 C20.93164163 271.21561222 17.55618212 275.57248883 14.17578125 279.92578125 C13.58555176 280.68938965 12.99532227 281.45299805 12.38720703 282.23974609 C11.28746835 283.66172938 10.18326031 285.08027211 9.07373047 286.49462891 C6.22197876 290.1821268 3.97716262 293.75169431 2 298 C0.45051836 300.81373532 -1.1194022 303.61505764 -2.6953125 306.4140625 C-3.82691097 308.65693132 -4.52815097 310.54868673 -5 313 C-6.65 312.67 -8.3 312.34 -10 312 C-9.87625 310.741875 -9.7525 309.48375 -9.625 308.1875 C-9.70368796 295.55808191 -21.97840596 283.32287055 -29.30078125 273.62109375 C-61 231.46086561 -61 231.46086561 -61 220 C-61.66 219.67 -62.32 219.34 -63 219 C-64.18645012 216.30296648 -65.24640211 213.64067783 -66.25 210.875 C-66.55647461 210.03114746 -66.86294922 209.18729492 -67.17871094 208.31787109 C-81.6659676 167.33044681 -82.28659471 127.52476853 -69.48730469 85.93164062 C-68.87769439 83.84721604 -68.87769439 83.84721604 -69 81 C-68.34 81 -67.68 81 -67 81 C-66.87625 80.48695313 -66.7525 79.97390625 -66.625 79.4453125 C-61.21081149 59.34513765 -50.22495246 38.72769738 -38 22 C-37.58637207 21.42910645 -37.17274414 20.85821289 -36.74658203 20.27001953 C-23.01252183 1.47789112 -23.01252183 1.47789112 -12.8125 -1.5625 C-8.24983335 -2.0860847 -4.17200792 -2.08600396 0 0 Z " fill="#FEE4E0" transform="translate(525,319)"/>
<path d="M0 0 C1.05389555 0.81872878 2.10862752 1.63638168 3.1640625 2.453125 C21.81525913 17.19522394 34.66255911 38.28692826 38 62 C38.21901739 66.21355755 38.19162185 70.40732445 38.125 74.625 C38.11597656 75.72457031 38.10695313 76.82414063 38.09765625 77.95703125 C38.07434124 80.63825758 38.0416204 83.31900607 38 86 C37.34 86 36.68 86 36 86 C36 87.65 36 89.3 36 91 C35.34 91 34.68 91 34 91 C33.78085937 90.45472656 33.56171875 89.90945313 33.3359375 89.34765625 C26.39607115 72.84431553 14.57564881 61.19875145 -1.86572266 54.20654297 C-39.23214726 39.40612603 -83.29885388 53.34846628 -118.5234375 68.296875 C-123.39777031 70.43071491 -128.20874041 72.68647 -133 75 C-133.69738281 75.33354492 -134.39476562 75.66708984 -135.11328125 76.01074219 C-139.78724535 78.25612169 -144.40666782 80.59428517 -149 83 C-150.07048584 83.5580835 -150.07048584 83.5580835 -151.16259766 84.12744141 C-190.40521249 104.75750123 -222.74574167 135.16894313 -236.68457031 178.10888672 C-237.89122767 182.04674163 -238.98167455 186.00892322 -240 190 C-240.99 189.67 -241.98 189.34 -243 189 C-243.85620117 187.24438477 -243.85620117 187.24438477 -244.54296875 184.94140625 C-244.80779053 184.0894165 -245.0726123 183.23742676 -245.34545898 182.35961914 C-245.62333252 181.43656982 -245.90120605 180.51352051 -246.1875 179.5625 C-256.29844295 147.73838162 -274.00961451 116.04825966 -303.5546875 98.60546875 C-306.04904223 96.96780134 -307.96966698 95.17670587 -310 93 C-301.3402788 93.14238705 -293.3718394 94.14770515 -285 96.375 C-284.21197998 96.58406982 -283.42395996 96.79313965 -282.61206055 97.00854492 C-277.88061499 98.32515165 -273.47033742 99.96694761 -269 102 C-269 102.66 -269 103.32 -269 104 C-268.26265625 104.26167969 -267.5253125 104.52335938 -266.765625 104.79296875 C-257.25386776 108.94428653 -251.24536109 118.44116305 -246 127 C-245.67 127.99 -245.34 128.98 -245 130 C-244.34 130 -243.68 130 -243 130 C-243.04640625 129.38898438 -243.0928125 128.77796875 -243.140625 128.1484375 C-243.66009008 114.97628731 -240.53604953 101.67956608 -237.26513672 88.97924805 C-236.9633065 86.72608266 -237.32122804 85.15285746 -238 83 C-237.34 83 -236.68 83 -236 83 C-236 82.34 -236 81.68 -236 81 C-235.01 80.67 -234.02 80.34 -233 80 C-231.50056864 77.54235215 -230.14036328 75.11003454 -228.8125 72.5625 C-225.14423068 65.77027545 -221.05386921 59.85469645 -216 54 C-215.30519531 53.08605469 -214.61039063 52.17210937 -213.89453125 51.23046875 C-213.26933594 50.49441406 -212.64414062 49.75835938 -212 49 C-211.34 49 -210.68 49 -210 49 C-210 48.01 -210 47.02 -210 46 C-208.35178756 44.96986723 -206.67888441 43.97934924 -205 43 C-203.83859449 41.9757243 -202.69457478 40.93160313 -201.5625 39.875 C-189.17763888 28.85850368 -172.7311136 19.97116272 -157 15 C-157 14.01 -157 13.02 -157 12 C-156.34 12 -155.68 12 -155 12 C-155 12.66 -155 13.32 -155 14 C-153.40285156 13.51080078 -153.40285156 13.51080078 -151.7734375 13.01171875 C-109.17436394 0.11144259 -67.36504328 1.96287895 -25 15 C-43.13798616 6.1045007 -61.63092865 -0.24228837 -82 -1 C-82.7724707 -1.03254883 -83.54494141 -1.06509766 -84.34082031 -1.09863281 C-111.01214492 -2.08868198 -138.95679552 1.91123797 -163 14 C-164.34680662 14.61928443 -165.69598265 15.23342949 -167.046875 15.84375 C-175.46838114 19.6689098 -183.3376104 23.77624918 -191 29 C-191.64839844 29.4021875 -192.29679688 29.804375 -192.96484375 30.21875 C-196.37744482 32.32999876 -196.37744482 32.32999876 -198 36 C-198.99 36 -199.98 36 -201 36 C-201 34.35 -201 32.7 -201 31 C-200.01 31 -199.02 31 -198 31 C-196.04017689 29.04308896 -194.23441902 27.09679907 -192.4375 25 C-190.6649126 22.94777365 -188.87056979 20.96717198 -187 19 C-186.34 19 -185.68 19 -185 19 C-185 18.34 -185 17.68 -185 17 C-182.99760539 15.21975555 -180.99377189 13.56989152 -178.875 11.9375 C-177.92427612 11.20104248 -177.92427612 11.20104248 -176.9543457 10.44970703 C-170.54670383 5.55342856 -163.9384978 1.1063093 -157 -3 C-156.36255859 -3.37898437 -155.72511719 -3.75796875 -155.06835938 -4.1484375 C-109.27609377 -30.93174496 -42.72827506 -35.1577999 0 0 Z M-235 83 C-234 85 -234 85 -234 85 Z M-245 131 C-244 135 -244 135 -244 135 Z " fill="#FEE4E0" transform="translate(761,545)"/>
<path d="M0 0 C10.26125553 10.06885699 19.29182485 21.18002875 26.6965332 33.51660156 C27.80457556 35.34147886 27.80457556 35.34147886 29.78125 37.18066406 C37.62341621 51.00914166 42.7623585 65.79212003 45.65625 81.36816406 C45.7888623 82.07537598 45.92147461 82.78258789 46.05810547 83.51123047 C46.70139263 87.33865063 46.8438539 90.43243797 45.78125 94.18066406 C44.79125 94.18066406 43.80125 94.18066406 42.78125 94.18066406 C42.70003906 93.43816406 42.61882812 92.69566406 42.53515625 91.93066406 C40.76618332 85.47803742 32.72470574 80.62859744 27.12109375 77.33300781 C10.19349016 68.99637499 -8.04668533 67.51443936 -26.53466797 66.02661133 C-42.91597711 64.68811303 -59.43643134 62.70715774 -75.03125 57.24316406 C-75.86124512 56.96013428 -76.69124023 56.67710449 -77.54638672 56.38549805 C-92.93494634 50.97418204 -107.93826681 44.26990318 -122.86328125 37.70410156 C-146.43729479 27.39730191 -170.65034595 22.98598322 -195.46875 32.36816406 C-208.94293255 38.3706257 -218.23477302 49.50897856 -225.21875 62.18066406 C-225.87875 61.85066406 -226.53875 61.52066406 -227.21875 61.18066406 C-232.93278656 42.41957736 -226.18469412 21.10869031 -217.46875 4.36816406 C-213.47830488 -2.94716689 -208.52492746 -9.41892221 -203.21875 -15.81933594 C-202.56519531 -16.6146875 -201.91164063 -17.41003906 -201.23828125 -18.22949219 C-197.85212869 -22.22859069 -194.2857771 -25.52698066 -190.21875 -28.81933594 C-189.88875 -29.47933594 -189.55875 -30.13933594 -189.21875 -30.81933594 C-187.64453125 -31.82714844 -187.64453125 -31.82714844 -185.53125 -32.94433594 C-182.06934848 -34.79287103 -178.69862251 -36.74028751 -175.34301758 -38.77514648 C-117.65224951 -73.21246889 -43.97929129 -42.1224806 0 0 Z " fill="#FEE4E0" transform="translate(469.21875,566.8193359375)"/>
<path d="M0 0 C-1.14932117 3.4479635 -1.98529269 3.96767838 -4.875 6 C-6.96223918 7.478782 -8.85240524 8.84746187 -10.6328125 10.6875 C-12 12 -12 12 -14 12 C-14.25910156 12.56847656 -14.51820313 13.13695312 -14.78515625 13.72265625 C-16.11296299 16.21176021 -17.68876792 18.22340887 -19.4375 20.4375 C-31.49201563 37.00974401 -38.44795193 56.16817461 -45.56103516 75.19824219 C-47.09599692 79.27663013 -48.68393444 83.33313609 -50.29296875 87.3828125 C-50.54879227 88.03144257 -50.80461578 88.68007263 -51.06819153 89.34835815 C-52.8806345 93.8806345 -52.8806345 93.8806345 -54 95 C-55.87092278 95.29918848 -57.75090293 95.54198677 -59.6328125 95.76171875 C-99.71581219 100.68982266 -136.02213357 112.65416066 -165 142 C-165.66 141.67 -166.32 141.34 -167 141 C-166.29037109 139.84951172 -166.29037109 139.84951172 -165.56640625 138.67578125 C-146.13617927 106.06481549 -138.74332093 70.62915108 -139 33 C-138.34 33 -137.68 33 -137 33 C-136.7525 32.43152344 -136.505 31.86304688 -136.25 31.27734375 C-131.26426184 22.19395204 -121.27084415 16.06002145 -112.98242188 10.29125977 C-112.22380859 9.76201904 -111.46519531 9.23277832 -110.68359375 8.6875 C-109.99837646 8.21699219 -109.31315918 7.74648438 -108.60717773 7.26171875 C-106.85915862 6.07446427 -106.85915862 6.07446427 -106 4 C-104.66891215 3.65780996 -103.33488899 3.3270478 -102 3 C-99.82247093 1.95994335 -97.65744222 0.89360766 -95.5 -0.1875 C-89.32605672 -3.17343782 -83.06937061 -5.41644873 -76.5 -7.375 C-75.66404297 -7.62531982 -74.82808594 -7.87563965 -73.96679688 -8.13354492 C-49.46003134 -15.20110351 -22.59467711 -11.29733855 0 0 Z " fill="#FEE4E0" transform="translate(738,420)"/>
<path d="M0 0 C0 0.66 0 1.32 0 2 C0.804375 2.02126953 0.804375 2.02126953 1.625 2.04296875 C28.30227872 3.66642157 52.82686001 20.74746825 70.5 39.6875 C73.31447864 42.94547224 75.27495902 45.64975411 76 50 C75.67 50.99 75.34 51.98 75 53 C75.1325971 84.79015379 82.93309646 117.43359896 99 145 C99.93280753 146.80424614 100.85165246 148.61585082 101.75 150.4375 C102.17796875 151.30246094 102.6059375 152.16742187 103.046875 153.05859375 C103.36140625 153.69925781 103.6759375 154.33992187 104 155 C102.0625 154.1875 102.0625 154.1875 100 153 C99.67 152.01 99.34 151.02 99 150 C97.68238819 149.30277598 96.34674566 148.63913875 95 148 C93.39233398 146.49755859 93.39233398 146.49755859 91.80859375 144.7734375 C87.92854183 140.78506188 83.67494941 137.71352071 79.0625 134.625 C78.2269458 134.06264648 77.3913916 133.50029297 76.53051758 132.92089844 C56.44842141 119.5570028 35.72039568 110.60264832 12.16015625 105.19140625 C11.2690918 104.98410889 10.37802734 104.77681152 9.45996094 104.56323242 C7.93605114 104.21431818 6.40845056 103.8806702 4.87597656 103.5715332 C1.70939343 102.84984875 0.18374746 102.21339595 -1.9609375 99.72265625 C-2.42757812 98.84480469 -2.89421875 97.96695313 -3.375 97.0625 C-3.85710937 96.18722656 -4.33921875 95.31195313 -4.8359375 94.41015625 C-6 92 -6 92 -7 89 C-8.53338217 86.14136786 -10.12821808 83.32106303 -11.72265625 80.49609375 C-13 78 -13 78 -13 76 C-13.99 75.505 -13.99 75.505 -15 75 C-15.9292059 73.25699912 -16.79314621 71.47900634 -17.625 69.6875 C-28.05540142 48.37320145 -44.47535553 27.76232223 -66 17 C-66 16.34 -66 15.68 -66 15 C-44.67535376 3.43360372 -24.17749646 -0.64188044 0 0 Z " fill="#FEE4E0" transform="translate(367,408)"/>
<path d="M0 0 C0.99 0 1.98 0 3 0 C3.00586624 0.68171768 3.01173248 1.36343536 3.01777649 2.06581116 C3.32159568 36.0891726 3.94232276 70.07736833 5.39883041 104.07273483 C5.50006752 106.43907827 5.59968412 108.80548608 5.6991272 111.17190552 C5.85666811 114.89942458 6.0197434 118.62665962 6.18782997 122.3537178 C6.2494278 123.7251137 6.30989757 125.0965608 6.36916161 126.46805954 C6.45093422 128.34274326 6.53878967 130.2171587 6.62695312 132.09155273 C6.67501099 133.14189194 6.72306885 134.19223114 6.77258301 135.2743988 C6.9699754 137.64015398 7.3358495 139.72796326 8 142 C8.31525635 140.84854492 8.6305127 139.69708984 8.95532227 138.51074219 C15.5739161 114.36066525 22.31274058 90.24812384 29.25 66.1875 C29.58146027 65.03560181 29.91292053 63.88370361 30.25442505 62.69689941 C31.19325705 59.4365564 32.13505037 56.17708677 33.078125 52.91796875 C33.35984055 51.93992783 33.64155609 50.9618869 33.93180847 49.95420837 C34.19053238 49.06335037 34.44925629 48.17249237 34.71582031 47.25463867 C34.94086243 46.47706711 35.16590454 45.69949554 35.39776611 44.89836121 C36 43 36 43 37 41 C37.99 41 38.98 41 40 41 C39.37113594 47.49111577 37.91872783 53.50688409 36.15625 59.77734375 C35.87121109 60.80874481 35.58617218 61.84014587 35.29249573 62.90280151 C34.68258629 65.1070798 34.07013407 67.31065584 33.45535278 69.51358032 C32.49018443 72.97267834 31.5321211 76.43367478 30.57592773 79.89526367 C28.24979441 88.31123504 25.91179271 96.72389355 23.57080078 105.13574219 C22.39583781 109.35981093 21.22588713 113.58522822 20.0625 117.8125 C19.88523376 118.45581268 19.70796753 119.09912537 19.52532959 119.76193237 C16.4807804 130.85003389 13.7981492 142.00545056 11.29321289 153.22583008 C9.85151604 159.63750457 8.20927641 165.80873437 6 172 C4.07348633 171.2644043 4.07348633 171.2644043 2 170 C1.2331543 168.13208008 1.2331543 168.13208008 0.82421875 165.76953125 C0.64455566 164.84736816 0.46489258 163.92520508 0.27978516 162.97509766 C0.08433105 161.93144043 -0.11112305 160.8877832 -0.3125 159.8125 C-3.00656193 146.96573091 -6.81975722 134.59936199 -10.875 122.125 C-11.52149357 120.13137702 -12.16789547 118.13772432 -12.81420898 116.14404297 C-13.14146469 115.13466675 -13.4687204 114.12529053 -13.80589294 113.08532715 C-14.13807327 112.06072388 -14.4702536 111.03612061 -14.8125 109.98046875 C-15.14947403 108.94233032 -15.48644806 107.90419189 -15.83363342 106.83459473 C-19.59162854 95.2279275 -23.21040308 83.57875528 -26.80181885 71.9196167 C-27.51372783 69.6097083 -28.22737442 67.30033466 -28.94281006 64.99151611 C-29.94244749 61.7650965 -30.93687921 58.53712036 -31.9296875 55.30859375 C-32.22689697 54.35132889 -32.52410645 53.39406403 -32.83032227 52.40779114 C-34.19288638 47.95243117 -35.39369583 43.63568062 -36 39 C-34.09857178 39.27857971 -34.09857178 39.27857971 -32 40 C-30.7421646 42.82545658 -29.78737863 45.45950644 -28.890625 48.40234375 C-28.60650253 49.28704849 -28.32238007 50.17175323 -28.02964783 51.08326721 C-27.08742926 54.02994488 -26.16888378 56.98347063 -25.25 59.9375 C-24.59833502 61.99008371 -23.94507118 64.04216042 -23.2902832 66.09375 C-21.903802 70.44637687 -20.52681801 74.8018512 -19.15673828 79.15966797 C-16.97101237 86.10509227 -14.75272068 93.03984927 -12.52734375 99.97265625 C-11.79457698 102.25593454 -11.06182936 104.53921897 -10.32910156 106.82250977 C-9.9733606 107.93103302 -9.61761963 109.03955627 -9.25109863 110.18167114 C-7.25491034 116.40959305 -5.26803401 122.64049605 -3.28294373 128.8719635 C-1.88394443 133.25796431 -0.4696909 137.63700892 1 142 C1.09786616 131.9068722 1.07463495 121.844252 0.5625 111.76171875 C0.51805252 110.88401321 0.47360504 110.00630768 0.42781067 109.102005 C0.33371023 107.25877499 0.23932818 105.41555934 0.14468384 103.57235718 C-0.87990934 83.14295038 -1.20026861 62.74338726 -1.18847656 42.29306412 C-1.18750612 40.20069372 -1.18846751 38.10833083 -1.18969727 36.01596069 C-1.19083257 32.06659687 -1.18074 28.11731366 -1.16796875 24.16796875 C-1.16677536 22.99899048 -1.16558197 21.83001221 -1.16435242 20.62561035 C-1.12494823 13.69929307 -0.75417732 6.88578112 0 0 Z " fill="#2C2626" transform="translate(515,454)"/>
<path d="M0 0 C2.3984375 0.16796875 2.3984375 0.16796875 5 1 C12.8422458 10.89616732 14.19566653 25.94929346 13 38 C11.77094749 43.06202983 10.37618108 46.08254595 6 49 C1.36363636 50.54545455 1.36363636 50.54545455 -1 51 C-1 50.01 -1 49.02 -1 48 C-1.61359375 47.7628125 -2.2271875 47.525625 -2.859375 47.28125 C-6.89899062 44.86337788 -7.79104874 40.34852368 -9 36 C-10.89442422 24.91761829 -6.71939011 10.46657674 -1 1 C-0.67 0.67 -0.34 0.34 0 0 Z " fill="#FDBDC3" transform="translate(515,403)"/>
<path d="M0 0 C2.625 0.3203125 2.625 0.3203125 4.25 2.015625 C10.00959001 12.19308234 15.50861729 23.34296341 13.625 35.3203125 C12.38248601 38.42659748 11.81489215 39.80469257 8.75 41.1328125 C8.04875 41.1946875 7.3475 41.2565625 6.625 41.3203125 C5.449375 41.5678125 5.449375 41.5678125 4.25 41.8203125 C0.59480498 41.12408488 -0.7049663 39.21349236 -3.04296875 36.4375 C-6.4502961 31.02174802 -6.72958411 25.71230533 -6.6875 19.5078125 C-6.68548584 18.71189697 -6.68347168 17.91598145 -6.68139648 17.09594727 C-6.40390771 0.86368492 -6.40390771 0.86368492 0 0 Z " fill="#FCBCC3" transform="translate(476.375,451.6796875)"/>
<path d="M0 0 C3.10268462 7.06414803 4.40580849 13.59491522 4.4375 21.25 C4.44716797 21.99362793 4.45683594 22.73725586 4.46679688 23.50341797 C4.37006365 29.91199438 3.07358089 35.5709481 -1.1875 40.5625 C-4.54296838 42.27751717 -6.480514 42.37650478 -10.12890625 41.65234375 C-12 41 -12 41 -14.5 39.125 C-17.75445603 32.34488328 -16.51207398 25.87512891 -14.19995117 18.96801758 C-7.29022075 0 -7.29022075 0 0 0 Z " fill="#FCBCC3" transform="translate(563,452)"/>
<path d="M0 0 C9.60682677 -0.21444219 18.78859417 0.31013947 28.3125 1.625 C29.60921631 1.80321289 30.90593262 1.98142578 32.24194336 2.16503906 C66.01226659 6.97021667 97.79434662 17.59896658 124 40 C124.79535156 40.66773438 125.59070313 41.33546875 126.41015625 42.0234375 C127.95488815 43.3316995 129.48105651 44.66188312 131 46 C127.10772071 46 124.92567513 44.27053607 121.75 42.25 C99.92638292 28.79629825 77.46214308 19.38687337 53 12 C52.13020508 11.73155273 51.26041016 11.46310547 50.36425781 11.18652344 C33.8356027 6.12826607 17.0678075 3.48689939 0 1 C0 0.67 0 0.34 0 0 Z " fill="#FDCECC" transform="translate(355,554)"/>
<path d="M0 0 C0.99 0 1.98 0 3 0 C2.3711343 6.49113265 0.91864316 12.50685284 -0.84375 18.77734375 C-1.1290155 19.81001373 -1.41428101 20.84268372 -1.70819092 21.90664673 C-2.63346339 25.25176867 -3.56651482 28.59466151 -4.5 31.9375 C-5.45825551 35.38880609 -6.41496975 38.84053715 -7.37164307 42.2922821 C-8.00875411 44.59025841 -8.64657034 46.88803932 -9.28509521 49.18562317 C-11.1752176 55.99300459 -13.03595146 62.80727523 -14.859375 69.6328125 C-15.17358398 70.80484978 -15.17358398 70.80484978 -15.49414062 72.00056458 C-16.65419798 76.32694122 -16.65419798 76.32694122 -17.80151367 80.65670776 C-18.30451809 82.56566259 -18.81605808 84.4723624 -19.328125 86.37890625 C-19.6055957 87.4263501 -19.88306641 88.47379395 -20.16894531 89.55297852 C-21 92 -21 92 -23 94 C-22.67 91.36 -22.34 88.72 -22 86 C-22.33773437 87.20398438 -22.67546875 88.40796875 -23.0234375 89.6484375 C-23.4736144 91.22405664 -23.92415409 92.79957216 -24.375 94.375 C-24.59671875 95.1690625 -24.8184375 95.963125 -25.046875 96.78125 C-25.26601563 97.54179688 -25.48515625 98.30234375 -25.7109375 99.0859375 C-26.00943604 100.1385376 -26.00943604 100.1385376 -26.31396484 101.21240234 C-27 103 -27 103 -29 105 C-28.40997602 99.34434617 -27.36451965 94.1018914 -25.8046875 88.640625 C-25.58026474 87.83783615 -25.35584198 87.0350473 -25.12461853 86.20793152 C-24.38064366 83.55358919 -23.628071 80.90177474 -22.875 78.25 C-22.34826091 76.38037154 -21.82181884 74.51065938 -21.2956543 72.64086914 C-16.85415289 56.89143427 -12.33734781 41.1631558 -7.8125 25.4375 C-7.47917664 24.27778687 -7.14585327 23.11807373 -6.8024292 21.92321777 C-5.85626498 18.63434042 -4.90720514 15.34631464 -3.95703125 12.05859375 C-3.6721434 11.06788376 -3.38725555 10.07717377 -3.09373474 9.05644226 C-2.83181839 8.15279434 -2.56990204 7.24914642 -2.30004883 6.31811523 C-1.95796135 5.13366066 -1.95796135 5.13366066 -1.60896301 3.92527771 C-1 2 -1 2 0 0 Z " fill="#171313" transform="translate(552,495)"/>
<path d="M0 0 C0 3 0 3 -1.80078125 4.98828125 C-2.62964844 5.75527344 -3.45851563 6.52226562 -4.3125 7.3125 C-8.44710376 11.31278754 -12.06560809 15.43569434 -15.5625 20 C-18.74161921 24.14621914 -21.95276273 28.15557886 -25.5 32 C-29.48334849 36.33003424 -33.09043589 40.8729909 -36.68334961 45.52490234 C-40.65190751 50.63338734 -44.83100532 55.53688755 -49.11645508 60.38183594 C-51.50445698 63.11121073 -53.60963449 65.62692392 -55 69 C-55.66 69 -56.32 69 -57 69 C-57.2475 69.598125 -57.495 70.19625 -57.75 70.8125 C-59.16370012 73.28647521 -60.65055383 74.43370255 -63 76 C-61.73863442 71.65177494 -60.16518024 68.4788442 -57.4375 64.875 C-56.72078125 63.91980469 -56.0040625 62.96460938 -55.265625 61.98046875 C-54.51796875 60.99691406 -53.7703125 60.01335938 -53 59 C-52.29359375 58.04738281 -51.5871875 57.09476563 -50.859375 56.11328125 C-48.59284337 53.05998595 -46.30069663 50.02762684 -44 47 C-43.58911133 46.45472656 -43.17822266 45.90945313 -42.75488281 45.34765625 C-35.4265318 35.65116736 -27.45046074 26.73054469 -19 18 C-18.5157959 17.49919922 -18.0315918 16.99839844 -17.53271484 16.48242188 C-12.24675904 11.04327737 -6.76646113 5.92332321 -1 1 C-0.67 0.67 -0.34 0.34 0 0 Z " fill="#FDCDCB" transform="translate(656,460)"/>
<path d="M0 0 C1.13199353 0.9080162 2.25532363 1.82683826 3.375 2.75 C4.00148438 3.26046875 4.62796875 3.7709375 5.2734375 4.296875 C7 6 7 6 8.0390625 8.140625 C8.91104318 10.35790369 8.91104318 10.35790369 12 11 C13.9453125 13.1171875 13.9453125 13.1171875 16.125 15.875 C16.92550781 16.88046875 17.72601563 17.8859375 18.55078125 18.921875 C19.76314453 20.44554687 19.76314453 20.44554687 21 22 C22.43694536 23.70879989 23.87443902 25.41713887 25.3125 27.125 C36.67043169 41.03995296 48.76907336 57.0065637 55 74 C54.505 75.485 54.505 75.485 54 77 C52.56109364 74.91762765 51.12373239 72.83421654 49.6875 70.75 C49.21111084 70.0590625 48.73472168 69.368125 48.24389648 68.65625 C44.95660247 63.87694818 41.69953697 59.0780288 38.4609375 54.265625 C30.33211019 42.19621331 22.18674989 30.19407 13.28466797 18.67431641 C11.96565517 16.95523815 10.66927358 15.22113312 9.37890625 13.48046875 C8.96527832 12.92294922 8.55165039 12.36542969 8.12548828 11.79101562 C7.03016669 10.31257908 5.93499814 8.83402915 4.83984375 7.35546875 C3.10703472 5.02739707 3.10703472 5.02739707 1.25390625 3.30078125 C0 2 0 2 0 0 Z " fill="#FDCCCA" transform="translate(393,458)"/>
<path d="M0 0 C0.33 0 0.66 0 1 0 C0.76137817 1.9089746 0.52234439 3.8178986 0.28125 5.7265625 C0.02791091 7.77438679 -0.2060023 9.82459179 -0.4375 11.875 C-1.53451562 20.62156149 -3.65904795 29.26157588 -5.5 37.875 C-5.71269531 38.89335938 -5.92539062 39.91171875 -6.14453125 40.9609375 C-6.35464844 41.940625 -6.56476562 42.9203125 -6.78125 43.9296875 C-6.96751953 44.80866699 -7.15378906 45.68764648 -7.34570312 46.59326172 C-7.98237539 48.93517037 -8.83524487 50.87795406 -10 53 C-11.92578125 52.3125 -11.92578125 52.3125 -14 51 C-14.79296875 48.75 -14.79296875 48.75 -15.1875 46 C-15.33058594 45.01902344 -15.47367188 44.03804687 -15.62109375 43.02734375 C-15.74613281 42.02832031 -15.87117187 41.02929688 -16 40 C-16.13535156 39.07316406 -16.27070312 38.14632812 -16.41015625 37.19140625 C-17.34503783 29.95950619 -17.34503783 29.95950619 -15 26 C-14.34 26 -13.68 26 -13 26 C-13 21.05 -13 16.1 -13 11 C-12.34 11.33 -11.68 11.66 -11 12 C-10.5859375 15.16015625 -10.5859375 15.16015625 -10.375 19.0625 C-10.30023437 20.35285156 -10.22546875 21.64320313 -10.1484375 22.97265625 C-10.09945312 23.97167969 -10.05046875 24.97070312 -10 26 C-9.01 26.33 -8.02 26.66 -7 27 C-6.74605469 25.97261719 -6.49210938 24.94523438 -6.23046875 23.88671875 C-4.24849973 15.89702688 -2.21727856 7.9284506 0 0 Z " fill="#302929" transform="translate(531,573)"/>
<path d="M0 0 C0.33 0 0.66 0 1 0 C1.01030746 0.69838989 1.02061493 1.39677979 1.03123474 2.11633301 C1.13074357 8.81947086 1.23342151 15.52255415 1.33933926 22.22559357 C1.39364058 25.66860246 1.44687116 29.11161975 1.49731445 32.5546875 C1.74965368 49.71734239 2.16582212 66.85504116 3 84 C3.33 82.02 3.66 80.04 4 78 C4.33 78 4.66 78 5 78 C5.95314885 86.8847507 6.30075966 95.75948373 6.5625 104.6875 C6.60582087 106.08269161 6.64943878 107.47787402 6.69335938 108.87304688 C6.79848102 112.2486196 6.90062877 115.62425393 7 119 C6.01 119.495 6.01 119.495 5 120 C4.67 116.04 4.34 112.08 4 108 C4 112.29 4 116.58 4 121 C1.30453271 118.30453271 1.66304522 116.77853563 1.49755859 113.0012207 C1.43766754 111.73005905 1.37777649 110.4588974 1.31607056 109.1492157 C1.25981364 107.74141932 1.20394777 106.33360727 1.1484375 104.92578125 C1.08445418 103.46337787 1.01985657 102.00100126 0.9546814 100.53865051 C0.7829215 96.60989207 0.62501853 92.68069459 0.47117615 88.75119781 C0.37535039 86.32138472 0.27608996 83.89173406 0.17590332 81.46209717 C-0.66234294 61.01679022 -1.28433124 40.59034987 -1.25 20.125 C-1.24913391 19.13078033 -1.24826782 18.13656067 -1.24737549 17.11221313 C-1.24110765 14.36894136 -1.22533097 11.62599738 -1.203125 8.8828125 C-1.1987442 8.08527054 -1.1943634 7.28772858 -1.18984985 6.46601868 C-1.11891648 1.11891648 -1.11891648 1.11891648 0 0 Z " fill="#120F0F" transform="translate(515,480)"/>
<path d="M0 0 C0.33 0 0.66 0 1 0 C1 22.77 1 45.54 1 69 C-2.37527272 64.49963638 -2.37527272 64.49963638 -2.35644531 60.87744141 C-2.35944641 60.07625885 -2.36244751 59.27507629 -2.36553955 58.44961548 C-2.35319275 57.592258 -2.34084595 56.73490051 -2.328125 55.8515625 C-2.32625183 54.96141449 -2.32437866 54.07126648 -2.32244873 53.15414429 C-2.31573342 51.27297211 -2.30182924 49.39181378 -2.28125 47.51074219 C-2.25018891 44.64244485 -2.24028527 41.77469865 -2.234375 38.90625 C-2.22520019 37.07551419 -2.2148229 35.24478393 -2.203125 33.4140625 C-2.19887512 32.56075348 -2.19462524 31.70744446 -2.19024658 30.82827759 C-2.1380024 26.43730206 -1.81468969 22.32879896 -1 18 C-0.8675166 16.49432064 -0.76016543 14.98611839 -0.68359375 13.4765625 C-0.64169922 12.68378906 -0.59980469 11.89101563 -0.55664062 11.07421875 C-0.51732422 10.26597656 -0.47800781 9.45773437 -0.4375 8.625 C-0.39431641 7.79355469 -0.35113281 6.96210938 -0.30664062 6.10546875 C-0.20138195 4.07046772 -0.10026928 2.03525297 0 0 Z " fill="#EBCFCE" transform="translate(520,456)"/>
<path d="M0 0 C0.99 0 1.98 0 3 0 C3 23.1 3 46.2 3 70 C2.67 70 2.34 70 2 70 C1.67 55.15 1.34 40.3 1 25 C0.67 25 0.34 25 0 25 C0 16.75 0 8.5 0 0 Z " fill="#000000" transform="translate(515,454)"/>
<path d="M0 0 C2 1 2 1 2.77783203 2.82592773 C3.01872559 3.60395752 3.25961914 4.3819873 3.5078125 5.18359375 C3.77207031 6.02857422 4.03632813 6.87355469 4.30859375 7.74414062 C4.57800781 8.63294922 4.84742188 9.52175781 5.125 10.4375 C5.40214844 11.32244141 5.67929687 12.20738281 5.96484375 13.11914062 C8 19.70081589 8 19.70081589 8 22 C7.34 22 6.68 22 6 22 C6.37253906 23.12019531 6.74507813 24.24039063 7.12890625 25.39453125 C7.60723598 26.86703648 8.08507509 28.33970115 8.5625 29.8125 C8.80935547 30.55048828 9.05621094 31.28847656 9.31054688 32.04882812 C11.11328125 37.66015625 11.11328125 37.66015625 10 41 C8.54202653 36.82428775 7.10010406 32.64347548 5.67260742 28.45727539 C5.18509096 27.03488013 4.69327006 25.61395245 4.19702148 24.19458008 C3.48316462 22.15038616 2.78511427 20.10135987 2.08984375 18.05078125 C1.45357056 16.20480347 1.45357056 16.20480347 0.80444336 14.3215332 C-0.01219971 10.94962761 0.12603424 9.28329589 1 6 C0.61666338 2.77888408 0.61666338 2.77888408 0 0 Z " fill="#0D0A0A" transform="translate(494,533)"/>
<path d="M0 0 C0.33 0 0.66 0 1 0 C1.95314885 8.8847507 2.30075966 17.75948373 2.5625 26.6875 C2.60582087 28.08269161 2.64943878 29.47787402 2.69335938 30.87304688 C2.79848102 34.2486196 2.90062877 37.62425393 3 41 C2.01 41.495 2.01 41.495 1 42 C0.93941406 40.95199219 0.87882813 39.90398438 0.81640625 38.82421875 C0.73198262 37.44529952 0.64733553 36.06639395 0.5625 34.6875 C0.52318359 33.99720703 0.48386719 33.30691406 0.44335938 32.59570312 C0.25072585 29.52838465 -0.02322717 26.93031848 -1 24 C-1.01578603 22.15197031 -0.96681127 20.30303657 -0.87890625 18.45703125 C-0.83056641 17.38388672 -0.78222656 16.31074219 -0.73242188 15.20507812 C-0.67634766 14.08552734 -0.62027344 12.96597656 -0.5625 11.8125 C-0.51029297 10.68134766 -0.45808594 9.55019531 -0.40429688 8.38476562 C-0.27456193 5.5895672 -0.13959359 2.7947206 0 0 Z " fill="#120F0F" transform="translate(519,558)"/>
<path d="M0 0 C4.55820002 6.83730003 5.32894305 15.94731663 6 24 C5.01 23.67 4.02 23.34 3 23 C0.27289901 16.57849297 -0.94547235 8.96590696 -1 2 C-0.67 1.34 -0.34 0.68 0 0 Z " fill="#2E2728" transform="translate(490,518)"/>
<path d="M0 0 C0.33 0 0.66 0 1 0 C3.06941893 8.5307701 3.0270774 14.73249829 0 23 C-0.33 23 -0.66 23 -1 23 C-2.03026944 16.30324864 -2.10152799 9.7685324 -2 3 C-1.34 3 -0.68 3 0 3 C0 2.01 0 1.02 0 0 Z " fill="#EDE0DE" transform="translate(523,577)"/>
<path d="M0 0 C1.88671875 0.234375 1.88671875 0.234375 4 1 C6.61235991 5.56455667 7.36579005 9.9465768 6 15 C6.38333662 18.22111592 6.38333662 18.22111592 7 21 C4.88831106 18.88831106 4.51584089 17.94310579 3.7109375 15.15625 C3.49179687 14.40472656 3.27265625 13.65320313 3.046875 12.87890625 C2.82515625 12.09386719 2.6034375 11.30882812 2.375 10.5 C2.14554687 9.71496094 1.91609375 8.92992187 1.6796875 8.12109375 C0 2.2921782 0 2.2921782 0 0 Z " fill="#090606" transform="translate(479,493)"/>
<path d="M0 0 C0.33 0 0.66 0 1 0 C2.25 6.625 2.25 6.625 0 10 C-0.52142846 11.35953597 -0.9972375 12.73705381 -1.4375 14.125 C-1.81648437 15.30255859 -1.81648437 15.30255859 -2.203125 16.50390625 C-2.46609375 17.32761719 -2.7290625 18.15132812 -3 19 C-3.56020772 20.68826236 -4.12260242 22.37580109 -4.6875 24.0625 C-4.93886719 24.81660156 -5.19023438 25.57070313 -5.44921875 26.34765625 C-5.63097656 26.89292969 -5.81273437 27.43820312 -6 28 C-7.12497707 24.62506878 -6.59024345 23.38595794 -5.5390625 20.11328125 C-4.69346637 16.79829932 -4.54958278 13.44559502 -4.34375 10.0390625 C-4.2303125 9.36617187 -4.116875 8.69328125 -4 8 C-3.34 7.67 -2.68 7.34 -2 7 C-1.26924352 4.6859378 -0.59861742 2.35171131 0 0 Z " fill="#3C3434" transform="translate(539,544)"/>
<path d="M0 0 C0.33 0 0.66 0 1 0 C1 7.92 1 15.84 1 24 C-0.67879435 20.6424113 -1.97317061 17.47527552 -3.1875 13.9375 C-3.73470703 12.37322266 -3.73470703 12.37322266 -4.29296875 10.77734375 C-5 8 -5 8 -4 5 C-2.5393715 7.64738916 -2 8.89448334 -2 12 C-1.34 12 -0.68 12 0 12 C0 8.04 0 4.08 0 0 Z " fill="#EDE5E4" transform="translate(516,576)"/>
<path d="M0 0 C1.87751953 0.00676758 1.87751953 0.00676758 3.79296875 0.01367188 C6.86202941 0.02538585 9.93098907 0.04178927 13 0.0625 C13 0.3925 13 0.7225 13 1.0625 C-3.335 1.5575 -3.335 1.5575 -20 2.0625 C-20 2.7225 -20 3.3825 -20 4.0625 C-22.97 3.5675 -22.97 3.5675 -26 3.0625 C-18.69222351 -1.50486031 -8.22839248 -0.05647788 0 0 Z " fill="#FEEDE9" transform="translate(667,540.9375)"/>
<path d="M0 0 C0.99 0 1.98 0 3 0 C2.52060632 4.71403788 2.03165952 8.66579301 0 13 C-0.33 12.01 -0.66 11.02 -1 10 C-1.33 10.99 -1.66 11.98 -2 13 C-2.66 12.67 -3.32 12.34 -4 12 C-2.68 8.04 -1.36 4.08 0 0 Z " fill="#141010" transform="translate(552,495)"/>
<path d="M0 0 C0.33 0 0.66 0 1 0 C1.33 6.6 1.66 13.2 2 20 C4.12364481 20.22609337 4.12364481 20.22609337 5.625 18.5 C6.07875 18.005 6.5325 17.51 7 17 C5.8141763 20.37503669 4.72426311 22.64722731 2 25 C-2.19364483 18.10188217 -1.65061091 7.70285091 0 0 Z " fill="#F7DAD6" transform="translate(241,604)"/>
<path d="M0 0 C0.99 0 1.98 0 3 0 C2.93941406 0.54785156 2.87882813 1.09570312 2.81640625 1.66015625 C1.99540564 9.42808505 1.48847094 17.20525098 1 25 C0.67 25 0.34 25 0 25 C0 16.75 0 8.5 0 0 Z " fill="#0D0B0B" transform="translate(515,454)"/>
<path d="M0 0 C0.33 0 0.66 0 1 0 C1.28875 0.969375 1.5775 1.93875 1.875 2.9375 C2.64214682 6.10664203 2.64214682 6.10664203 5 7 C5.33 6.34 5.66 5.68 6 5 C5.33333333 7.66666667 4.66666667 10.33333333 4 13 C2.35 12.67 0.7 12.34 -1 12 C-1.02687279 10.18757948 -1.04633715 8.37504767 -1.0625 6.5625 C-1.07410156 5.55316406 -1.08570313 4.54382813 -1.09765625 3.50390625 C-1 1 -1 1 0 0 Z " fill="#DFD0CC" transform="translate(516,619)"/>
<path d="M0 0 C2.11044382 3.16566573 2.75552077 5.51197415 3.625 9.1875 C3.88539063 10.27417969 4.14578125 11.36085938 4.4140625 12.48046875 C4.60742188 13.31191406 4.80078125 14.14335938 5 15 C4.34 15 3.68 15 3 15 C2.67 13.02 2.34 11.04 2 9 C1.34 9 0.68 9 0 9 C-1.125 2.25 -1.125 2.25 0 0 Z " fill="#282121" transform="translate(490,518)"/>
<path d="M0 0 C0.33 0 0.66 0 1 0 C1 3.63 1 7.26 1 11 C0.67 11 0.34 11 0 11 C-0.33 12.65 -0.66 14.3 -1 16 C-1.33 16 -1.66 16 -2 16 C-2.05384521 13.70858714 -2.09272087 11.41681812 -2.125 9.125 C-2.14820313 7.84882813 -2.17140625 6.57265625 -2.1953125 5.2578125 C-2 2 -2 2 0 0 Z " fill="#EDDBD7" transform="translate(514,454)"/>
<path d="M0 0 C0.66 1.32 1.32 2.64 2 4 C1.01 4.495 1.01 4.495 0 5 C0 6.65 0 8.3 0 10 C-0.66 10 -1.32 10 -2 10 C-2.99 7.03 -3.98 4.06 -5 1 C-2.525 1.99 -2.525 1.99 0 3 C0 2.01 0 1.02 0 0 Z " fill="#F6DEDA" transform="translate(797,626)"/>
<path d="M0 0 C1.32 0.33 2.64 0.66 4 1 C5.125 4.3125 5.125 4.3125 6 8 C5.01 9.485 5.01 9.485 4 11 C3.566875 9.88625 3.566875 9.88625 3.125 8.75 C2.071251 6.06092912 2.071251 6.06092912 0.875 3.8125 C0 2 0 2 0 0 Z " fill="#211A1B" transform="translate(479,493)"/>
<path d="M0 0 C2.42130331 2.42130331 2.52840504 3.80111377 3.125 7.125 C3.29257812 8.03507813 3.46015625 8.94515625 3.6328125 9.8828125 C3.81457031 10.93082031 3.81457031 10.93082031 4 12 C3.01 11.67 2.02 11.34 1 11 C0.234375 9.2578125 0.234375 9.2578125 -0.25 7.125 C-0.42015625 6.42632813 -0.5903125 5.72765625 -0.765625 5.0078125 C-1 3 -1 3 0 0 Z " fill="#312A2A" transform="translate(496,543)"/>
<path d="M0 0 C0.91026797 3.07215439 1.25288404 5.79680216 1 9 C0.34 9.66 -0.32 10.32 -1 11 C-1.66 11.99 -2.32 12.98 -3 14 C-4.125 8.25 -4.125 8.25 -3 6 C-2.34 6 -1.68 6 -1 6 C-0.67 4.02 -0.34 2.04 0 0 Z " fill="#342C2D" transform="translate(551,502)"/>
<path d="M0 0 C0.99 0.33 1.98 0.66 3 1 C3.80078125 2.7421875 3.80078125 2.7421875 4.3125 4.875 C4.58513672 5.92300781 4.58513672 5.92300781 4.86328125 6.9921875 C5 9 5 9 3 12 C2.49440092 10.56445975 1.9957251 9.1264798 1.5 7.6875 C1.2215625 6.88699219 0.943125 6.08648437 0.65625 5.26171875 C0 3 0 3 0 0 Z " fill="#2D2728" transform="translate(484,505)"/>
<path d="M0 0 C0.99 0 1.98 0 3 0 C3.33 0.99 3.66 1.98 4 3 C2.6875 4.9375 2.6875 4.9375 1 7 C0.30419733 8.31836295 -0.37224433 9.64791086 -1 11 C-2.31625194 8.36749612 -1.74813658 7.19820944 -1.0625 4.375 C-0.86785156 3.55773437 -0.67320312 2.74046875 -0.47265625 1.8984375 C-0.23869141 0.95871094 -0.23869141 0.95871094 0 0 Z " fill="#E8DCDB" transform="translate(524,613)"/>
<path d="M0 0 C0.33 0 0.66 0 1 0 C0.4140625 6.15234375 0.4140625 6.15234375 0 8 C-0.99 8.495 -0.99 8.495 -2 9 C-2.33 6.36 -2.66 3.72 -3 1 C-2.67 1.66 -2.34 2.32 -2 3 C-1.34 3 -0.68 3 0 3 C0 2.01 0 1.02 0 0 Z " fill="#433A3A" transform="translate(521,615)"/>
<path d="M0 0 C0.99 0.33 1.98 0.66 3 1 C3.33 3.31 3.66 5.62 4 8 C3.34 6.68 2.68 5.36 2 4 C1.34 4 0.68 4 0 4 C0 2.68 0 1.36 0 0 Z " fill="#221D1E" transform="translate(500,555)"/>
<path d="M0 0 C0.99 0.495 0.99 0.495 2 1 C1.67 2.32 1.34 3.64 1 5 C0.67 3.35 0.34 1.7 0 0 Z " fill="#FEE6E2" transform="translate(596,474)"/>
<path d="M0 0 C0.66 0.33 1.32 0.66 2 1 C1.01 1 0.02 1 -1 1 C-0.67 0.67 -0.34 0.34 0 0 Z " fill="#FEE6E0" transform="translate(598,559)"/>
<path d="M0 0 C4 1 4 1 4 1 Z " fill="#FDE5E0" transform="translate(620,551)"/>
<path d="M0 0 C0.66 0.66 1.32 1.32 2 2 C1.01 1.67 0.02 1.34 -1 1 C-0.67 0.67 -0.34 0.34 0 0 Z " fill="#FEE6E2" transform="translate(425,530)"/>
<path d="M0 0 C4 1 4 1 4 1 Z " fill="#FEE6E1" transform="translate(627,527)"/>
<path d="" fill="#FBE3DF" transform="translate(0,0)"/>
<path d="M0 0 C0.66 0.66 1.32 1.32 2 2 C1.34 2 0.68 2 0 2 C0 1.34 0 0.68 0 0 Z " fill="#E1CECF" transform="translate(513,621)"/>
<path d="M0 0 C0.66 0.66 1.32 1.32 2 2 C1.34 2 0.68 2 0 2 C0 1.34 0 0.68 0 0 Z " fill="#EBD5D1" transform="translate(509,614)"/>
<path d="" fill="#FDE5E2" transform="translate(0,0)"/>
<path d="M0 0 C0.66 0 1.32 0 2 0 C1.67 0.66 1.34 1.32 1 2 C0.67 1.34 0.34 0.68 0 0 Z " fill="#FEE5E2" transform="translate(469,557)"/>
<path d="M0 0 C3 1 3 1 3 1 Z " fill="#FEE7E4" transform="translate(701,548)"/>
<path d="M0 0 C0.66 0.66 1.32 1.32 2 2 C1.34 2 0.68 2 0 2 C0 1.34 0 0.68 0 0 Z " fill="#FEE6E3" transform="translate(695,546)"/>
<path d="M0 0 C0.99 0.495 0.99 0.495 2 1 C1.01 1.495 1.01 1.495 0 2 C0 1.34 0 0.68 0 0 Z " fill="#FDE5E1" transform="translate(431,534)"/>
<path d="M0 0 C3 1 3 1 3 1 Z " fill="#FFE5E2" transform="translate(427,534)"/>
<path d="M0 0 C3 1 3 1 3 1 Z " fill="#FEE5E2" transform="translate(657,519)"/>
<path d="M0 0 C3 1 3 1 3 1 Z " fill="#FFE7E5" transform="translate(672,517)"/>
<path d="M0 0 C3 1 3 1 3 1 Z " fill="#FAE3DE" transform="translate(337,408)"/>
<path d="" fill="#F1DAD6" transform="translate(0,0)"/>
<path d="" fill="#FAE2DF" transform="translate(0,0)"/>
<path d="" fill="#FBE3DE" transform="translate(0,0)"/>
<path d="M0 0 C2 1 2 1 2 1 Z " fill="#FEE5E2" transform="translate(476,638)"/>
<path d="" fill="#E5D5D1" transform="translate(0,0)"/>
<path d="M0 0 C2 1 2 1 2 1 Z " fill="#FDE4E1" transform="translate(480,574)"/>
<path d="" fill="#FCE6E3" transform="translate(0,0)"/>
<path d="M0 0 C2 1 2 1 2 1 Z " fill="#FDE5E2" transform="translate(471,565)"/>
<path d="" fill="#FEE6E2" transform="translate(0,0)"/>
<path d="M0 0 C2 1 2 1 2 1 Z " fill="#FFE5E2" transform="translate(625,552)"/>
<path d="" fill="#FEE5E1" transform="translate(0,0)"/>
<path d="M0 0 C2 1 2 1 2 1 Z " fill="#FEE5E2" transform="translate(708,550)"/>
<path d="M0 0 C2 1 2 1 2 1 Z " fill="#FEE8E4" transform="translate(624,550)"/>
<path d="" fill="#FBE6E3" transform="translate(0,0)"/>
<path d="M0 0 C2 1 2 1 2 1 Z " fill="#FEE4E2" transform="translate(597,542)"/>
<path d="M0 0 C2 1 2 1 2 1 Z " fill="#FDE4E1" transform="translate(579,542)"/>
<path d="M0 0 C2 1 2 1 2 1 Z " fill="#FDE5E3" transform="translate(633,525)"/>
<path d="M0 0 C2 1 2 1 2 1 Z " fill="#FEE5E2" transform="translate(661,520)"/>
<path d="M0 0 C2 1 2 1 2 1 Z " fill="#FFE8E4" transform="translate(388,516)"/>
<path d="M0 0 C2 1 2 1 2 1 Z " fill="#FEE7E3" transform="translate(595,486)"/>
<path d="M0 0 C2 1 2 1 2 1 Z " fill="#FFE7E3" transform="translate(595,484)"/>
<path d="M0 0 C2 1 2 1 2 1 Z " fill="#FEE7E3" transform="translate(444,477)"/>
<path d="M0 0 C2 1 2 1 2 1 Z " fill="#FEE7E3" transform="translate(346,475)"/>
<path d="" fill="#FDE5E2" transform="translate(0,0)"/>
<path d="" fill="#FEE7E5" transform="translate(0,0)"/>
<path d="" fill="#FFE8E4" transform="translate(0,0)"/>
<path d="M0 0 C2 1 2 1 2 1 Z " fill="#FCE0DF" transform="translate(314,435)"/>
<path d="" fill="#7A7B7A" transform="translate(0,0)"/>
<path d="" fill="#FCE5E1" transform="translate(0,0)"/>
<path d="" fill="#FCE2DF" transform="translate(0,0)"/>
<path d="" fill="#FFE6E2" transform="translate(0,0)"/>
<path d="" fill="#FEE5E3" transform="translate(0,0)"/>
<path d="" fill="#FEE7E4" transform="translate(0,0)"/>
<path d="" fill="#EDD7D5" transform="translate(0,0)"/>
<path d="" fill="#EDDAD3" transform="translate(0,0)"/>
<path d="" fill="#FEE5E1" transform="translate(0,0)"/>
<path d="" fill="#FFE5E2" transform="translate(0,0)"/>
<path d="" fill="#EFDCD8" transform="translate(0,0)"/>
<path d="" fill="#F5DDDA" transform="translate(0,0)"/>
<path d="" fill="#FDE5E2" transform="translate(0,0)"/>
<path d="" fill="#FBE4E0" transform="translate(0,0)"/>
<path d="" fill="#FEE3E2" transform="translate(0,0)"/>
<path d="" fill="#EED8D4" transform="translate(0,0)"/>
<path d="" fill="#E8D5D2" transform="translate(0,0)"/>
<path d="" fill="#E6D3D1" transform="translate(0,0)"/>
<path d="" fill="#FDE3E2" transform="translate(0,0)"/>
<path d="" fill="#F0D7D2" transform="translate(0,0)"/>
<path d="" fill="#F0D8D6" transform="translate(0,0)"/>
<path d="" fill="#EFD8D3" transform="translate(0,0)"/>
<path d="" fill="#F2DBD5" transform="translate(0,0)"/>
<path d="" fill="#F1D8D7" transform="translate(0,0)"/>
<path d="" fill="#F2D8D5" transform="translate(0,0)"/>
<path d="" fill="#FFE8E6" transform="translate(0,0)"/>
<path d="" fill="#F6DED8" transform="translate(0,0)"/>
<path d="" fill="#F5DED9" transform="translate(0,0)"/>
<path d="" fill="#FADFDC" transform="translate(0,0)"/>
<path d="" fill="#FAE1DC" transform="translate(0,0)"/>
<path d="" fill="#FEE6E2" transform="translate(0,0)"/>
<path d="" fill="#FFE5E0" transform="translate(0,0)"/>
<path d="" fill="#FDE5E2" transform="translate(0,0)"/>
<path d="" fill="#FBE7E3" transform="translate(0,0)"/>
<path d="" fill="#FEE4E1" transform="translate(0,0)"/>
<path d="" fill="#FEE4E2" transform="translate(0,0)"/>
<path d="" fill="#F8DFDD" transform="translate(0,0)"/>
<path d="" fill="#FFE5E1" transform="translate(0,0)"/>
<path d="" fill="#FEE7E3" transform="translate(0,0)"/>
<path d="" fill="#FEE5E3" transform="translate(0,0)"/>
<path d="" fill="#FDE5E1" transform="translate(0,0)"/>
<path d="" fill="#FCE5E3" transform="translate(0,0)"/>
<path d="" fill="#FEE6E6" transform="translate(0,0)"/>
<path d="" fill="#FAE1E0" transform="translate(0,0)"/>
<path d="" fill="#FDE2E0" transform="translate(0,0)"/>
<path d="" fill="#FDE3E2" transform="translate(0,0)"/>
<path d="" fill="#FEE2E0" transform="translate(0,0)"/>
<path d="" fill="#FEE3E1" transform="translate(0,0)"/>
<path d="" fill="#FDE4E2" transform="translate(0,0)"/>
<path d="" fill="#FBE4E0" transform="translate(0,0)"/>
<path d="" fill="#FDE4E1" transform="translate(0,0)"/>
<path d="" fill="#FBE5E2" transform="translate(0,0)"/>
<path d="" fill="#FEE6E4" transform="translate(0,0)"/>
<path d="" fill="#FBE4E0" transform="translate(0,0)"/>
<path d="" fill="#FEE3E0" transform="translate(0,0)"/>
<path d="" fill="#FEE6E2" transform="translate(0,0)"/>
<path d="" fill="#FEE5E3" transform="translate(0,0)"/>
<path d="" fill="#FDE7E5" transform="translate(0,0)"/>
<path d="" fill="#FFE8E4" transform="translate(0,0)"/>
<path d="" fill="#FEE5E3" transform="translate(0,0)"/>
<path d="" fill="#FEE6E4" transform="translate(0,0)"/>
<path d="" fill="#FDE3E2" transform="translate(0,0)"/>
<path d="" fill="#FFE4E0" transform="translate(0,0)"/>
<path d="" fill="#FCE5E3" transform="translate(0,0)"/>
<path d="" fill="#FEE6E1" transform="translate(0,0)"/>
<path d="" fill="#FCE6E4" transform="translate(0,0)"/>
<path d="" fill="#FDE7E3" transform="translate(0,0)"/>
<path d="" fill="#FEE6E4" transform="translate(0,0)"/>
<path d="" fill="#FFE6E3" transform="translate(0,0)"/>
<path d="" fill="#FDE7E2" transform="translate(0,0)"/>
<path d="" fill="#FEE5E0" transform="translate(0,0)"/>
<path d="" fill="#FFE7E6" transform="translate(0,0)"/>
<path d="" fill="#FFE6E3" transform="translate(0,0)"/>
<path d="" fill="#FFE8E4" transform="translate(0,0)"/>
<path d="" fill="#FFE5E0" transform="translate(0,0)"/>
<path d="" fill="#FFE9E5" transform="translate(0,0)"/>
<path d="" fill="#FFEAE7" transform="translate(0,0)"/>
<path d="" fill="#FEE6E2" transform="translate(0,0)"/>
<path d="" fill="#FFE7E2" transform="translate(0,0)"/>
<path d="" fill="#FDE8E6" transform="translate(0,0)"/>
<path d="" fill="#FDE6E2" transform="translate(0,0)"/>
<path d="" fill="#FFE4E5" transform="translate(0,0)"/>
<path d="" fill="#FEE8E4" transform="translate(0,0)"/>
<path d="" fill="#FCE7E3" transform="translate(0,0)"/>
<path d="" fill="#FDE7E5" transform="translate(0,0)"/>
<path d="" fill="#FDE6E4" transform="translate(0,0)"/>
<path d="" fill="#FFE6E4" transform="translate(0,0)"/>
<path d="" fill="#FEE6E4" transform="translate(0,0)"/>
<path d="" fill="#FCE7E4" transform="translate(0,0)"/>
<path d="" fill="#FFE7E4" transform="translate(0,0)"/>
<path d="" fill="#FEE8E5" transform="translate(0,0)"/>
<path d="" fill="#FFE6E2" transform="translate(0,0)"/>
<path d="" fill="#FEE7E3" transform="translate(0,0)"/>
<path d="" fill="#FFE7E5" transform="translate(0,0)"/>
<path d="" fill="#FDE6E4" transform="translate(0,0)"/>
<path d="" fill="#FEE6E1" transform="translate(0,0)"/>
<path d="" fill="#FFE8E5" transform="translate(0,0)"/>
<path d="" fill="#FDE5E1" transform="translate(0,0)"/>
<path d="" fill="#FEE8E3" transform="translate(0,0)"/>
<path d="" fill="#FCE4E1" transform="translate(0,0)"/>
<path d="" fill="#FEE7E3" transform="translate(0,0)"/>
<path d="" fill="#FDE6E2" transform="translate(0,0)"/>
<path d="" fill="#FEE4E1" transform="translate(0,0)"/>
<path d="" fill="#FCE5E2" transform="translate(0,0)"/>
<path d="" fill="#FEE5E1" transform="translate(0,0)"/>
<path d="" fill="#FFE7E3" transform="translate(0,0)"/>
<path d="" fill="#FFE3E1" transform="translate(0,0)"/>
<path d="" fill="#FFE7E3" transform="translate(0,0)"/>
<path d="" fill="#FFE6E4" transform="translate(0,0)"/>
<path d="" fill="#FCE6E0" transform="translate(0,0)"/>
<path d="" fill="#FCE5E3" transform="translate(0,0)"/>
<path d="" fill="#FFE7E3" transform="translate(0,0)"/>
<path d="" fill="#FEE4E1" transform="translate(0,0)"/>
<path d="" fill="#FDE6E3" transform="translate(0,0)"/>
<path d="" fill="#FFE6E2" transform="translate(0,0)"/>
<path d="" fill="#FFE7E2" transform="translate(0,0)"/>
<path d="" fill="#FCE6E2" transform="translate(0,0)"/>
<path d="" fill="#FFE5E2" transform="translate(0,0)"/>
<path d="" fill="#FDE7E3" transform="translate(0,0)"/>
<path d="" fill="#FCE5E2" transform="translate(0,0)"/>
<path d="" fill="#FEE6E2" transform="translate(0,0)"/>
<path d="" fill="#FDE6E2" transform="translate(0,0)"/>
<path d="" fill="#FFE8E3" transform="translate(0,0)"/>
<path d="" fill="#FFE3E1" transform="translate(0,0)"/>
<path d="" fill="#FEE8E1" transform="translate(0,0)"/>
<path d="" fill="#FFE9E6" transform="translate(0,0)"/>
<path d="" fill="#FEE4E0" transform="translate(0,0)"/>
<path d="" fill="#FFE5E2" transform="translate(0,0)"/>
<path d="" fill="#FFE8E6" transform="translate(0,0)"/>
<path d="" fill="#FFE5E1" transform="translate(0,0)"/>
<path d="" fill="#FFE6E1" transform="translate(0,0)"/>
<path d="" fill="#FFE7E4" transform="translate(0,0)"/>
<path d="" fill="#FDE8E3" transform="translate(0,0)"/>
<path d="" fill="#FFE7E4" transform="translate(0,0)"/>
<path d="" fill="#FFE7E4" transform="translate(0,0)"/>
<path d="" fill="#FEE5E0" transform="translate(0,0)"/>
<path d="" fill="#FEE5E1" transform="translate(0,0)"/>
<path d="" fill="#FFE6E1" transform="translate(0,0)"/>
<path d="" fill="#FBE4E1" transform="translate(0,0)"/>
<path d="" fill="#FEE6E2" transform="translate(0,0)"/>
<path d="" fill="#FEE7E3" transform="translate(0,0)"/>
<path d="" fill="#FCE8E3" transform="translate(0,0)"/>
<path d="" fill="#FFE5E3" transform="translate(0,0)"/>
<path d="" fill="#FFE7E3" transform="translate(0,0)"/>
<path d="" fill="#FEE7E2" transform="translate(0,0)"/>
<path d="" fill="#FFE7E5" transform="translate(0,0)"/>
<path d="" fill="#FFE9E3" transform="translate(0,0)"/>
<path d="" fill="#FEE8E4" transform="translate(0,0)"/>
<path d="" fill="#FEE7E5" transform="translate(0,0)"/>
<path d="" fill="#FCE6E4" transform="translate(0,0)"/>
<path d="" fill="#FFE7E2" transform="translate(0,0)"/>
<path d="" fill="#FFE8E4" transform="translate(0,0)"/>
<path d="" fill="#FDE5E1" transform="translate(0,0)"/>
<path d="" fill="#FCE3E2" transform="translate(0,0)"/>
<path d="" fill="#FFE6E1" transform="translate(0,0)"/>
<path d="" fill="#FDE6E3" transform="translate(0,0)"/>
<path d="" fill="#FEE3DF" transform="translate(0,0)"/>
<path d="" fill="#F6DFDB" transform="translate(0,0)"/>
<path d="" fill="#FAE5E1" transform="translate(0,0)"/>
<path d="" fill="#FDE6E1" transform="translate(0,0)"/>
<path d="" fill="#FFE6E3" transform="translate(0,0)"/>
<path d="" fill="#FEE7E3" transform="translate(0,0)"/>
<path d="" fill="#EAD6D2" transform="translate(0,0)"/>
<path d="" fill="#FEE4DE" transform="translate(0,0)"/>
<path d="" fill="#FEE3E0" transform="translate(0,0)"/>
<path d="" fill="#FDE2E1" transform="translate(0,0)"/>
<path d="" fill="#F4DBD8" transform="translate(0,0)"/>
<path d="" fill="#828283" transform="translate(0,0)"/>
</svg>
